<svg width="128" height="26" viewBox="0 0 128 26" fill="none" xmlns="http://www.w3.org/2000/svg">
<path d="M2.63074 0.205823C1.84626 0.382478 1.21918 0.970506 0.992515 1.74203V1.74203L0.894586 12.0381C0.8293 19.4065 0.927229 22.5973 1.18837 23.2552C1.97181 25.1631 1.93917 25.1631 13.7886 25.1631H24.6588V24.1762V23.1894H14.5068C8.14135 23.1894 4.12625 23.0578 3.73454 22.8605C3.14696 22.5315 3.11432 22.071 3.11432 12.7289C3.11432 5.52493 3.21225 2.82756 3.50603 2.53151C4.06097 1.9723 21.4271 1.9723 21.982 2.53151C22.2758 2.82756 22.3737 5.0644 22.3737 10.5907V18.2552L15.127 18.1894L7.84757 18.0907L7.74964 14.4065L7.65171 10.7223L9.54501 9.4394C12.9725 7.10387 12.6135 7.13677 15.3555 9.11045C17.6405 10.7552 17.8037 10.9197 17.8037 12.071V13.321H14.213H10.6222V14.4723V15.6565L15.127 15.5578L19.5991 15.4591L19.697 12.4986L19.7949 9.50519L16.498 7.13677C14.7026 5.82098 13.0705 4.76835 12.9072 4.76835C12.744 4.76835 11.0466 5.75519 9.15329 6.9723L5.72577 9.17624L5.79105 14.6039L5.88898 20.0644H15.1923H24.4955V10.9197V1.74203V1.74203C24.3526 0.868438 23.6202 0.21257 22.7362 0.16665L22.6675 0.163086H12.744H2.82053L2.63074 0.205823Z" fill="#F7F7F7"/>
<path d="M51.0996 12.663V22.8604H52.5685H54.0375V12.663V2.46561H52.5685H51.0996V12.663Z" fill="#F7F7F7"/>
<path d="M57.6279 3.94552V5.42578H59.0969H60.5658V3.94552V2.46525H59.0969H57.6279V3.94552Z" fill="#F7F7F7"/>
<path d="M38.3029 8.35377C35.267 9.34061 33.4717 11.9722 33.4717 15.3604C33.4717 17.663 34.0919 19.3406 35.5282 20.8209C36.9318 22.3011 39.0536 22.8604 43.1667 22.8604H46.5289V21.3801V19.8998H43.0687C37.8785 19.8998 36.4096 18.8801 36.4096 15.2946C36.4096 12.5972 38.0091 11.0182 40.7184 11.0182C42.1221 11.0182 44.2439 12.0051 44.2439 12.6301C44.2439 12.8275 43.1667 13.288 41.8936 13.6498C37.65 14.8998 37.8785 14.7682 37.9438 15.9525C37.9438 16.5446 38.1396 17.1696 38.3029 17.334C38.7599 17.7946 47.1818 15.2946 47.6388 14.5709C48.3896 13.3538 46.6268 10.2617 44.505 9.04456C43.0687 8.22219 39.8044 7.86035 38.3029 8.35377Z" fill="#F7F7F7"/>
<path d="M65.2007 11.7418C65.9188 13.7813 66.9634 16.7747 67.551 18.4195C68.3997 20.8537 68.7914 21.5116 69.7381 22.1366C71.1091 23.0905 73.035 22.9589 74.1775 21.8076C74.6345 21.3142 75.777 18.6168 77.2133 14.6366C78.4864 11.1168 79.4983 8.18919 79.4983 8.1234C79.4983 8.05761 78.8128 8.05761 77.9641 8.1234L76.3973 8.22209L74.4387 13.7155C73.3614 16.7418 72.2842 19.4063 72.0557 19.6366C71.3702 20.3274 70.9132 19.4063 68.8893 13.551L67.0287 8.05761H65.4292H63.8623L65.2007 11.7418Z" fill="#F7F7F7"/>
<path d="M85.7989 8.51824C85.2439 8.7814 84.5584 9.4064 84.2973 9.93272C83.7097 11.0511 79.8252 22.038 79.8252 22.4985C79.8252 22.6959 80.4781 22.8604 81.2615 22.8604H82.6978L83.5465 20.459C84.0035 19.1761 84.9175 16.6103 85.5377 14.8011C86.1906 12.9919 86.8435 11.3801 87.0393 11.1827C87.6269 10.5906 88.2798 11.8406 90.1731 17.2682L92.0664 22.6959L93.6659 22.7946C94.8737 22.8604 95.2001 22.7946 95.1022 22.4656C95.0042 22.2354 94.0249 19.3735 92.8824 16.1169C91.4788 12.1038 90.5648 9.89982 89.9772 9.27482C88.9326 8.1893 87.2352 7.86035 85.7989 8.51824Z" fill="#F7F7F7"/>
<path d="M103.818 8.35377C103.459 8.51825 102.904 8.94588 102.545 9.30772C102.055 9.86693 98.8236 18.3209 97.6485 22.1367C97.42 22.8604 97.4526 22.8932 98.9869 22.7946L100.554 22.6959L102.447 17.2682C104.34 11.8406 104.993 10.5906 105.581 11.1827C105.777 11.3801 106.429 12.9919 107.082 14.8011C107.703 16.6104 108.617 19.1761 109.074 20.459L109.922 22.8604H111.359C112.142 22.8604 112.795 22.7288 112.795 22.5314C112.795 22.1038 108.715 10.6235 108.225 9.73535C107.572 8.45246 105.287 7.76167 103.818 8.35377Z" fill="#F7F7F7"/>
<path d="M57.6932 15.5246L57.7911 22.6957L59.1948 22.7944L60.5658 22.8931V15.6562V8.38649H59.0969H57.6279L57.6932 15.5246Z" fill="#F7F7F7"/>
<path d="M118.082 8.94588C116.417 9.76825 115.731 10.8538 115.731 12.6959C115.731 13.8801 115.927 14.5051 116.548 15.2617C117.396 16.2485 117.69 16.3472 122.227 17.1696C123.99 17.4985 124.643 18.3209 123.794 19.1432C123.337 19.6367 122.521 19.7682 119.649 19.834L116.058 19.9656V21.413V22.8604H119.257C123.141 22.8604 124.676 22.4656 126.079 21.0511C126.928 20.1959 127.157 19.7025 127.157 18.6169C127.157 17.0051 126.634 15.788 125.688 15.163C125.263 14.8998 123.664 14.4393 122.064 14.1761C118.735 13.584 117.919 13.0248 118.8 12.038C119.322 11.4459 119.877 11.3472 123.043 11.2814L126.667 11.1827L126.765 9.76825L126.863 8.38667H123.011C120.138 8.38667 118.898 8.55114 118.082 8.94588Z" fill="#F7F7F7"/>
</svg>
